<?xml version="1.0" encoding="utf-8"?>
<!-- Generator: Adobe Illustrator 18.1.1, SVG Export Plug-In . SVG Version: 6.00 Build 0)  -->
<svg version="1.1" xmlns="http://www.w3.org/2000/svg" xmlns:xlink="http://www.w3.org/1999/xlink" x="0px" y="0px"
	 viewBox="-312 270.1 166.5 73.9" enable-background="new -312 270.1 166.5 73.9" xml:space="preserve">
<g id="Calque_1">
	<g>
		<path fill="#004C73" d="M-210.5,332.7c-2.9,2.9-6.9,4.7-11.3,4.7c-4.4,0-8.4-1.8-11.2-4.7c-2.9-2.9-4.7-6.9-4.7-11.4
			c0-4.5,1.8-8.5,4.7-11.4c1.1-1.1,2.4-2.1,3.8-2.8l4.9,12.4c-0.4,0.5-0.6,1.1-0.6,1.8c0,1.8,1.4,3.2,3.2,3.2c1.8,0,3.2-1.4,3.2-3.2
			c0-1.5-1.1-2.8-2.5-3.1l-4.9-12.4c1.3-0.4,2.8-0.6,4.2-0.6c4.4,0,8.4,1.8,11.3,4.7c2.9,2.9,4.7,6.9,4.7,11.4
			C-205.8,325.8-207.6,329.8-210.5,332.7 M-269.2,313c-1-2.7-2.5-5.2-4.5-7.4l2-1.9l3.5,9.5C-268.5,313.1-268.8,313-269.2,313
			 M-278.6,332.7c-2.9,2.9-6.8,4.7-11.2,4.7c-4.4,0-8.4-1.8-11.3-4.7c-2.9-2.9-4.7-6.9-4.7-11.4c0-4.2,1.5-7.9,4.1-10.8
			c4.9,4.5,11.9,10.9,11.9,10.9l15.7,2C-274.5,327-276.1,330.2-278.6,332.7 M-221.8,298.9c-2.3,0-4.5,0.3-6.5,1l-1.5-3.9
			c2.7-0.8,5.6-1.9,8.6-3.9c8-4.4,8.6-22,8.6-22s-15.6,6.2-17.8,7.1l-0.1-0.4c-0.6-2-2.4-3.3-4.4-3.3c-0.4,0-0.9,0.1-1.3,0.2
			l-5.6,1.7c-0.9,0.3-1.5,1.3-1.2,2.2c0.3,1,1.3,1.5,2.2,1.2l5.6-1.7c0.1,0,0.2,0,0.3,0c0.5,0,0.9,0.3,1,0.8v0l0.4,1.3l-14.2,29.7
			c-1.3,2.5-2.4,4.1-3.6,5c-1.3,1.1-2.6,1.4-4.3,1.4c-0.7,0-1.3-0.1-2.1-0.1c-1-0.1-3.6-0.6-6.4-1.1l-8.3-22.6l6.7-0.9
			c0,0,0.1-0.4-0.1-1.8c-0.2-1.4-1.5-1.7-2.6-1.5c-1.1,0.2-9,1.2-10.2,1.4c-1.2,0.2-2.1,1.1-1.9,1.9c0.2,0.8,0.4,2.1,0.4,2.1
			l4.2-0.6l3,8.2l-3.2,3.1c-4-3.3-9.1-5.3-14.6-5.3c-6.5,0-12.4,2.7-16.6,7.1c0,0.1,0.4,0.5,1.2,1.2c-3.6,4-5.8,9.3-5.8,15.1
			c0,12.4,9.9,22.4,22.2,22.4c11.3,0,20.6-8.5,22-19.5c1.4,0.2,2.8,0.4,4,0.5l0.4,1c0.3,0.7,0.9,1.2,1.6,1.2c0.2,0,0.4,0,0.6-0.1
			c0.8-0.3,1.2-1.1,1.1-1.8h0.1h0.2c4,0,7-1.1,9.8-3.7c2-1.9,3.6-4.7,4.9-7.3c0.4-0.9,0.8-1.8,1.2-2.7c1.1-2.3,3.9-7.8,4.5-9.2
			c1.4-2.8,3.6-4,6.2-5l1.6,4.2c-7.3,3.7-12.3,11.3-12.3,20.1c0,12.4,9.9,22.4,22.2,22.4c12.2,0,22.2-10,22.2-22.4
			C-199.6,308.9-209.5,298.9-221.8,298.9"/>
		<polygon fill="#004C73" points="-182.2,293.6 -168.6,323.5 -169.1,327.7 -161.7,344 -145.5,344 -171.7,288.3 		"/>
		<path fill="#004C73" d="M-183.4,333.9c0.1-0.1,0.2-0.2,0.4-0.3l7.3-7.3c0,0,0.6-0.6,0.7-0.8c0.1-0.2,0.2-0.4,0.2-0.7
			c0-0.3-0.1-0.5-0.2-0.7c-0.1-0.2-0.6-0.7-0.6-0.7l-7.3-7.3c-0.1-0.1-0.3-0.2-0.4-0.3s-0.2-0.1-0.4-0.1l-4,0
			c-0.1,0-0.2,0.1-0.3,0.2c-0.1,0.1-0.1,0.2-0.1,0.4c0,0.2,0.1,0.3,0.2,0.4c0,0,5.3,5.3,5.6,5.5c0.2,0.2,0.1,0.5-0.2,0.5h-11.9
			c-0.2,0-0.4,0.1-0.5,0.2s-0.2,0.3-0.2,0.5v3c0,0.2,0.1,0.4,0.2,0.5c0.1,0.1,0.3,0.2,0.5,0.2h11.9c0.3,0,0.4,0.2,0.2,0.4
			c-0.2,0.2-5.6,5.5-5.6,5.5c-0.1,0.1-0.2,0.3-0.2,0.4c0,0.1,0,0.2,0.1,0.3c0.1,0.1,0.2,0.2,0.3,0.2h4
			C-183.6,333.9-183.5,333.9-183.4,333.9"/>
	</g>
</g>
<g id="Artwork">
	<path fill="#004C73" d="M96.9,352.8"/>
</g>
</svg>
